<?xml version="1.0" standalone="no"?>
<!DOCTYPE svg PUBLIC "-//W3C//DTD SVG 20010904//EN"
 "http://www.w3.org/TR/2001/REC-SVG-20010904/DTD/svg10.dtd">
<svg version="1.0" xmlns="http://www.w3.org/2000/svg"
 width="143.000000pt" height="143.000000pt" viewBox="0 0 143.000000 143.000000"
 preserveAspectRatio="xMidYMid meet">
<metadata>
Created by potrace 1.11, written by Peter Selinger 2001-2013
</metadata>
<g transform="translate(0.000000,143.000000) scale(0.100000,-0.100000)"
fill="#000000" stroke="none">
<path d="M158 1003 l-58 -59 0 -229 0 -230 60 60 60 61 -2 227 -3 228 -57 -58z"/>
<path d="M300 1005 l-55 -56 0 -229 -1 -230 50 47 c28 27 54 53 58 58 4 6 8
74 8 153 0 78 2 142 5 142 2 0 36 -31 76 -70 39 -38 73 -70 76 -70 2 0 3 36 2
79 l-2 80 -78 75 c-43 42 -79 76 -81 76 -2 0 -28 -25 -58 -55z"/>
<path d="M533 831 l1 -230 58 -58 58 -57 0 230 0 230 -59 58 -58 58 0 -231z"/>
<path d="M727 1002 l-57 -58 0 -229 0 -229 60 59 c59 59 60 60 60 116 l0 56
85 -1 84 -2 58 58 57 58 -142 0 -142 0 0 57 c0 56 1 58 57 115 l57 58 -60 0
c-59 0 -60 0 -117 -58z"/>
<path d="M872 1007 c-29 -29 -52 -55 -52 -57 0 -3 113 -5 250 -5 138 0 250 2
250 5 0 3 -24 29 -53 58 l-53 52 -145 0 -145 0 -52 -53z"/>
<path d="M1250 930 l-35 -5 1 -150 c0 -82 -1 -155 -3 -161 -2 -6 -27 -10 -56
-10 l-52 1 0 113 c0 61 -3 112 -6 112 -3 0 -31 -26 -61 -58 -54 -57 -55 -58
-53 -115 2 -56 4 -59 59 -112 55 -54 58 -55 114 -55 57 0 58 1 115 58 l57 58
0 161 c0 159 0 161 -22 164 -13 3 -39 2 -58 -1z"/>
<path d="M110 440 c-6 -15 -6 -60 -1 -60 4 0 15 15 26 33 14 25 15 29 3 19
-13 -10 -17 -10 -21 0 -3 7 -6 11 -7 8z"/>
<path d="M183 405 c-6 -19 -7 -35 -3 -35 5 0 10 6 13 13 3 9 7 9 20 -2 20 -16
20 -14 6 28 -14 40 -23 39 -36 -4z"/>
<path d="M258 433 c-2 -4 -4 -19 -4 -33 1 -18 7 -25 21 -25 16 0 20 7 20 30 0
28 -27 48 -37 28z m27 -13 c3 -5 1 -10 -4 -10 -6 0 -11 5 -11 10 0 6 2 10 4
10 3 0 8 -4 11 -10z m0 -30 c3 -5 1 -10 -4 -10 -6 0 -11 5 -11 10 0 6 2 10 4
10 3 0 8 -4 11 -10z"/>
<path d="M331 412 c-1 -21 4 -35 15 -39 19 -7 34 13 34 46 0 29 -12 21 -14 -9
-2 -32 -20 -28 -27 5 l-7 30 -1 -33z"/>
<path d="M410 406 l0 -34 24 21 c18 16 22 25 14 34 -20 25 -38 14 -38 -21z
m30 14 c0 -5 -4 -10 -10 -10 -5 0 -10 5 -10 10 0 6 5 10 10 10 6 0 10 -4 10
-10z"/>
<path d="M481 409 c-14 -41 -14 -44 2 -30 10 8 17 7 27 -2 10 -10 12 -7 6 13
-3 14 -6 31 -6 38 0 23 -18 12 -29 -19z"/>
<path d="M548 428 c5 -7 8 -23 6 -36 -3 -14 0 -21 6 -17 5 3 10 17 10 30 0 13
6 26 13 28 6 3 -1 6 -17 6 -21 1 -26 -2 -18 -11z"/>
<path d="M617 433 c-4 -3 -7 -19 -7 -35 0 -23 4 -28 23 -27 18 1 18 2 4 6 -18
5 -18 5 0 20 16 13 16 14 1 9 -10 -3 -18 -1 -18 4 0 5 8 14 18 19 14 9 15 10
1 11 -9 0 -19 -3 -22 -7z"/>
<path d="M690 440 c-1 -3 -3 -21 -6 -40 -4 -34 -4 -35 11 -13 12 17 13 28 6
40 -6 10 -11 16 -11 13z"/>
<path d="M717 411 c-4 -19 -5 -36 -2 -39 10 -11 16 7 13 40 l-3 33 -8 -34z"/>
<path d="M760 405 c0 -32 3 -36 23 -33 32 4 31 62 -1 66 -19 3 -22 -1 -22 -33z
m30 15 c0 -5 -4 -10 -10 -10 -5 0 -10 5 -10 10 0 6 5 10 10 10 6 0 10 -4 10
-10z m5 -30 c-3 -5 -11 -10 -16 -10 -6 0 -7 5 -4 10 3 6 11 10 16 10 6 0 7 -4
4 -10z"/>
<path d="M842 408 c-9 -32 -4 -57 5 -31 3 9 10 10 23 3 17 -9 17 -7 7 25 -13
44 -24 44 -35 3z"/>
<path d="M919 435 c0 -5 -2 -20 -5 -32 -2 -12 0 -24 5 -27 12 -8 20 40 10 56
-5 7 -9 9 -10 3z"/>
<path d="M948 415 c-4 -16 -3 -34 1 -38 12 -12 19 14 11 43 -6 25 -6 25 -12
-5z"/>
<path d="M998 435 c-2 -3 -3 -18 0 -35 3 -21 10 -30 23 -30 24 0 40 30 28 53
-9 16 -39 23 -51 12z m40 -33 c2 -15 -2 -22 -12 -22 -11 0 -16 9 -16 26 0 31
23 28 28 -4z"/>
<path d="M1082 410 c2 -27 7 -35 23 -35 16 0 21 8 23 35 2 24 0 31 -6 21 -5
-7 -7 -22 -5 -32 3 -12 0 -19 -9 -19 -8 0 -15 12 -16 27 -1 14 -5 29 -8 32 -3
3 -4 -10 -2 -29z"/>
<path d="M1169 440 c-7 -26 -6 -61 3 -66 7 -5 8 -2 3 6 -4 7 -2 16 5 20 9 6
10 12 1 26 -6 11 -11 17 -12 14z"/>
<path d="M1197 413 c-3 -16 -1 -32 4 -37 5 -6 9 4 9 27 0 44 -6 48 -13 10z"/>
<path d="M1252 428 c-17 -17 -15 -45 4 -52 27 -10 44 -7 44 9 0 8 -5 15 -11
15 -5 0 -7 -4 -4 -10 3 -5 0 -10 -8 -10 -17 0 -28 22 -19 37 4 6 16 13 27 16
20 5 20 5 0 6 -12 0 -26 -4 -33 -11z"/>
<path d="M130 391 c0 -5 5 -13 10 -16 6 -3 10 -2 10 4 0 5 -4 13 -10 16 -5 3
-10 2 -10 -4z"/>
</g>
</svg>
